<svg width="63" height="75" viewBox="0 0 63 75" fill="none" xmlns="http://www.w3.org/2000/svg">
<path d="M1.63867 61.0923V67.6601C1.63867 68.3901 1.78262 69.1129 2.06227 69.7872C2.34192 70.4615 2.75179 71.074 3.26842 71.5897C3.78505 72.1054 4.39831 72.5142 5.07309 72.7926C5.74788 73.0711 6.47095 73.2137 7.20092 73.2124L51.0876 73.134C51.6424 73.134 52.1918 73.0245 52.7043 72.812C53.2168 72.5994 53.6824 72.2879 54.0744 71.8953C54.4664 71.5027 54.7772 71.0366 54.9889 70.5238C55.2007 70.0109 55.3093 69.4614 55.3084 68.9065L55.2975 62.4898C55.7663 62.1919 56.0423 61.7426 56.2665 61.2391C56.5943 60.5038 56.9624 59.7884 57.341 59.0783C57.5017 58.7839 57.6045 58.4614 57.6435 58.1283C57.653 58.0457 57.6212 57.935 57.691 57.8908C58.3641 57.4529 58.5437 56.6862 58.8861 56.045C59.8252 54.2875 60.7006 52.4991 61.597 50.7202C61.662 50.5915 61.7518 50.4352 61.7281 50.3084C61.5989 49.6282 61.9181 48.9993 61.9181 48.3333C61.9111 36.3345 61.9111 24.3355 61.9181 12.3364C61.9181 11.9564 61.8919 11.5878 61.7703 11.2311C61.7381 11.154 61.7286 11.0693 61.7428 10.9869C62.0715 9.50966 62.0017 8.02433 61.7309 6.55848C61.3215 4.33786 59.3341 2.46113 57.1025 2.13433C55.7317 1.93388 54.3432 1.88401 52.9866 2.23598C51.7959 2.54731 50.7366 3.23263 49.9645 4.1911C49.1925 5.14957 48.7485 6.33055 48.6979 7.56026C48.666 8.38961 48.6945 9.22276 48.6922 10.0521C48.6922 10.3846 48.6736 10.7171 48.8347 11.0192C48.8822 11.1047 48.9007 11.1954 48.8613 11.261C48.6043 11.6885 48.696 12.1592 48.6955 12.6133C48.6917 24.4741 48.6906 36.3347 48.6922 48.1951C48.6922 48.6302 48.6561 49.0691 48.8641 49.4776C48.8803 49.509 48.9387 49.5023 48.9059 49.5831C48.6551 50.2067 48.9966 50.7273 49.2531 51.2389C50.2506 53.2339 51.2239 55.2413 52.3216 57.1764C52.6955 57.8367 52.9786 58.5097 53.2716 59.1961C53.6227 60.0155 54.1266 60.7636 54.4767 61.5868C54.5822 61.8128 54.733 62.0148 54.9199 62.1801C55.1446 62.3924 55.4177 62.5833 55.308 62.9747" stroke="black" stroke-width="2" stroke-linecap="round" stroke-linejoin="round"/>
<path d="M52.8057 16.6626C52.9605 16.7647 52.9444 16.9238 52.9444 17.0777C52.9444 17.6088 52.9444 18.1395 52.9444 18.6699C52.9444 26.8399 52.9444 35.0085 52.9444 43.1757C52.9444 43.4887 52.8969 43.8079 53.2232 44.0064" stroke="black" stroke-width="2" stroke-linecap="round" stroke-linejoin="round"/>
<path d="M57.6169 16.9048V43.7641" stroke="black" stroke-width="2" stroke-linecap="round" stroke-linejoin="round"/>
<path d="M48.9292 11.1252C50.0136 11.0625 51.098 11.1176 52.1825 11.1204C54.0863 11.1257 55.9905 11.0692 57.8934 11.1024C59.1407 11.1238 60.3857 11.082 61.6317 11.0905" stroke="black" stroke-width="2" stroke-linecap="round" stroke-linejoin="round"/>
<path d="M48.9981 49.5444C49.3216 49.5212 49.6445 49.4785 49.9675 49.478C53.4977 49.4733 57.0286 49.472 60.56 49.4742C60.9215 49.4742 61.2821 49.4775 61.6331 49.5786" stroke="black" stroke-width="2" stroke-linecap="round" stroke-linejoin="round"/>
<path d="M57.6169 57.9552C57.3528 57.7458 57.0469 57.6755 56.7168 57.6769C55.7478 57.6807 54.7783 57.6821 53.8093 57.6769C53.5033 57.6729 53.2026 57.7579 52.9439 57.9215" stroke="black" stroke-width="2" stroke-linecap="round" stroke-linejoin="round"/>
</svg>
