<svg width="64" height="70" viewBox="0 0 64 70" fill="none" xmlns="http://www.w3.org/2000/svg">
<path d="M32.3531 13.9296L34.3742 13.9676C34.4379 13.9676 34.5134 13.9453 34.5642 13.9714C35.1394 14.2731 35.7992 14.1614 36.3958 14.3514C37.0969 14.5747 37.8051 14.7789 38.4915 15.0421C40.1507 15.6767 41.6864 16.5303 43.0325 17.7049C44.3687 18.8711 45.5828 20.1346 46.5143 21.6645C46.9546 22.3875 47.3693 23.1266 47.6989 23.8937C47.9971 24.5936 48.2432 25.3145 48.4352 26.0507C48.553 26.4958 48.5829 26.9608 48.7496 27.393C48.8021 27.5284 48.8406 27.6688 48.8646 27.812C49.0674 29.0513 49.0683 30.3043 48.9971 31.5479C48.9532 32.2181 48.8536 32.8835 48.6993 33.5372C48.5701 34.1015 48.4086 34.6534 48.2608 35.2111C47.8943 36.5813 47.2557 37.8638 46.3832 38.9821C45.7438 39.8119 45.0484 40.5971 44.4091 41.4293C43.6345 42.4286 43.0003 43.5293 42.5243 44.7006C42.234 45.4188 41.9391 46.1432 41.7643 46.8856C41.6028 47.563 41.3054 48.2223 41.3244 48.9381C41.3205 49.0569 41.2891 49.1731 41.2327 49.2777C41.1159 49.539 41.1012 49.804 41.0817 50.0819C41.0494 50.5426 40.9463 51.0091 40.733 51.4119C40.448 51.9429 39.9659 52.1933 39.3351 52.1876C37.5429 52.1709 35.7493 52.2146 33.9586 52.1633C33.3705 52.1462 32.7887 52.1709 32.2039 52.1809C31.9441 52.1852 31.6814 52.198 31.4392 52.0712C31.4116 52.051 31.3788 52.0393 31.3447 52.0372C31.3106 52.0352 31.2766 52.043 31.2468 52.0598C30.9252 52.2256 30.568 52.1814 30.2208 52.1814C28.441 52.1814 26.6616 52.1747 24.8818 52.188C24.5493 52.188 24.3379 52.093 24.1489 51.808C23.7846 51.2556 23.6739 50.6486 23.5708 50.0121C23.4815 49.4492 23.4535 48.8687 23.2136 48.3277C23.0844 48.0361 23.1253 47.6955 23.0303 47.3734C22.7647 46.4709 22.4883 45.5794 22.1363 44.7092C21.4552 43.0258 20.4353 41.5651 19.2445 40.2033C18.2712 39.0899 17.3616 37.9195 16.8382 36.5092C16.5124 35.6542 16.2469 34.7774 16.0435 33.8853C15.8981 33.2237 15.8155 32.5553 15.7053 31.8937C15.5219 30.7959 15.558 29.6792 15.7053 28.5796C15.8255 27.6695 15.9903 26.7561 16.2449 25.8759C16.4786 25.0684 16.7622 24.2652 17.1426 23.5061C17.715 22.349 18.3506 21.237 19.1519 20.2153C20.3275 18.7176 21.725 17.476 23.3172 16.4486C24.0403 15.9725 24.8073 15.5666 25.6076 15.2364C26.427 14.9077 27.2554 14.5714 28.1223 14.397C29.1901 14.1828 30.2488 13.8712 31.3618 13.9605C31.6767 13.9857 31.9973 13.941 32.3151 13.9282" stroke="black" stroke-width="2" stroke-linecap="round" stroke-linejoin="round"/>
<path d="M24.3446 52.1792C24.2827 52.3459 24.1927 52.5007 24.0786 52.6371C23.8273 52.9349 23.7532 53.2755 23.7651 53.6664C23.7903 54.4801 24.3683 55.0771 25.1839 55.0771H39.5223C39.7927 55.0716 40.0583 55.1491 40.2834 55.2992C40.5085 55.4492 40.6821 55.6647 40.781 55.9165C41.0157 56.4826 40.9074 57.0807 40.5155 57.4839C40.2305 57.777 39.9075 57.9114 39.4843 57.9114C35.1371 57.8997 30.7897 57.8972 26.4422 57.9038C25.5791 57.9038 24.955 58.5285 24.955 59.391C24.955 60.2042 25.5853 60.8022 26.4422 60.8022H37.6522C38.6383 60.8022 39.3294 61.6767 39.1014 62.6329C39.0338 62.9086 38.8781 63.1548 38.6579 63.334C38.4376 63.5132 38.1649 63.6156 37.8811 63.6256C35.2758 63.7078 32.6694 63.647 30.0636 63.6551C29.5848 63.6551 29.135 63.7377 28.7336 63.9781C28.5312 64.0997 28.3911 64.0944 28.2325 63.9657C28.0672 63.8332 27.869 63.7482 27.6591 63.7197" stroke="black" stroke-width="2" stroke-linecap="round" stroke-linejoin="round"/>
<path d="M33.3829 37.4209C33.3943 38.0626 33.1796 38.6839 33.2095 39.3275C33.2152 39.4544 33.1929 39.5817 33.1929 39.7075C33.1929 43.8008 33.1929 47.8939 33.1929 51.9868" stroke="black" stroke-width="2" stroke-linecap="round" stroke-linejoin="round"/>
<path d="M34.1453 36.8103C34.1453 36.1339 34.5842 35.7087 35.0231 35.2855C35.4816 34.839 36.0296 34.4946 36.6309 34.2752C36.9772 34.1507 37.4147 34.0852 37.7643 34.3374C38.139 34.6067 38.2312 34.9972 38.111 35.438C38.0307 35.7339 37.8042 35.9097 37.5776 36.0868C37.2247 36.3652 36.81 36.5077 36.402 36.6744C35.9996 36.8407 35.5612 36.7993 35.1713 36.9936C34.9456 37.1062 34.6758 37.0767 34.4535 36.9575C34.1771 36.8093 33.96 36.8402 33.7643 37.0777C33.5339 37.3627 33.2779 37.3774 32.9207 37.2853C32.441 37.1618 31.9303 37.1827 31.4378 37.3066C31.1528 37.3784 31.0801 37.5888 31.1361 37.8391C31.2924 38.5312 31.3261 39.2318 31.3261 39.9377C31.3233 43.9543 31.3233 47.971 31.3261 51.988" stroke="black" stroke-width="2" stroke-linecap="round" stroke-linejoin="round"/>
<path d="M30.3699 36.7723C30.3072 36.0493 29.8607 35.5648 29.3387 35.1345C28.8908 34.7649 28.4006 34.4405 27.8487 34.27C27.5005 34.1626 27.0958 34.1047 26.749 34.3346C26.4284 34.5474 26.2769 34.8661 26.3329 35.2461C26.3971 35.6855 26.7177 35.9643 27.0559 36.1961C27.6036 36.5699 28.2325 36.7466 28.8827 36.8497C28.9592 36.8616 29.0494 36.853 29.1093 36.891C29.552 37.1727 29.9643 37.0421 30.3628 36.7927L31.1703 37.4216" stroke="black" stroke-width="2" stroke-linecap="round" stroke-linejoin="round"/>
<path d="M27.0521 1.26904C27.0576 1.55528 27.1022 1.83943 27.1846 2.11359C27.3323 2.62707 27.3566 3.17569 27.4345 3.70959C27.4478 3.79842 27.4293 3.88249 27.4654 3.97892C27.6919 4.57932 27.7095 5.22627 27.8582 5.84377C28.014 6.48929 28.109 7.15049 28.2311 7.79792C28.3313 8.33134 28.461 8.87712 28.5108 9.42907C28.5441 9.79862 28.7165 10.152 28.6923 10.5358" stroke="black" stroke-width="2" stroke-linecap="round" stroke-linejoin="round"/>
<path d="M39.7512 1.00195C39.8937 1.40095 39.851 1.7743 39.7374 2.18945C39.6339 2.56945 39.5683 2.9865 39.4553 3.35605C39.28 3.92605 39.147 4.50793 38.9969 5.08315C38.7461 6.04645 38.4678 7.0031 38.2307 7.97115C38.1224 8.41243 38.0555 8.8841 37.8602 9.32063C37.6873 9.70775 37.6479 10.1547 37.552 10.5651C37.2731 10.5993 37.0019 10.5257 36.7388 10.6103" stroke="black" stroke-width="2" stroke-linecap="round" stroke-linejoin="round"/>
<path d="M62.594 30.3654C61.9328 30.2946 61.2706 30.3654 60.6113 30.353C59.4789 30.3284 58.3465 30.3678 57.2174 30.3431C56.1857 30.3212 55.1573 30.3312 54.1299 30.3673C53.824 30.3777 53.5214 30.2723 53.2145 30.3464" stroke="black" stroke-width="2" stroke-linecap="round" stroke-linejoin="round"/>
<path d="M11.2645 30.3468C10.514 30.2992 9.76731 30.266 9.01348 30.3563C8.40691 30.4295 7.79178 30.2769 7.18426 30.3002C6.06421 30.3439 4.94796 30.3477 3.82791 30.3002C3.20708 30.2731 2.58246 30.3415 1.95973 30.3667" stroke="black" stroke-width="2" stroke-linecap="round" stroke-linejoin="round"/>
<path d="M59.0092 17.8574C57.5599 18.5314 56.1088 19.2002 54.6624 19.88C53.5153 20.4196 52.3738 20.9725 51.2295 21.5187" stroke="black" stroke-width="2" stroke-linecap="round" stroke-linejoin="round"/>
<path d="M6.57388 15.8927C6.83418 15.8148 6.96243 16.0565 7.14056 16.1511C8.34231 16.789 9.51128 17.4863 10.6988 18.1503C11.7913 18.7616 12.8781 19.3853 13.9734 19.989C14.1022 20.0603 14.2518 20.0935 14.3914 20.1443" stroke="black" stroke-width="2" stroke-linecap="round" stroke-linejoin="round"/>
<path d="M58.1703 44.7809C57.7703 44.8056 57.4934 44.5097 57.1885 44.3439C55.6685 43.5174 54.1827 42.6264 52.676 41.7709C51.9221 41.3434 51.1522 40.9421 50.3893 40.5288" stroke="black" stroke-width="2" stroke-linecap="round" stroke-linejoin="round"/>
<path d="M14.0485 40.5664C12.1672 41.6288 10.286 42.6898 8.40501 43.7493C7.82503 44.0757 7.23176 44.3782 6.65463 44.7093C6.48648 44.8043 6.32213 44.7625 6.15588 44.7806" stroke="black" stroke-width="2" stroke-linecap="round" stroke-linejoin="round"/>
<path d="M20.4168 13.739C20.3484 13.3253 20.0125 13.074 19.7964 12.7544C18.996 11.5797 18.1548 10.433 17.3264 9.27736C16.68 8.37486 16.0164 7.48138 15.3936 6.56131C15.2711 6.38033 15.1561 6.38271 15.0008 6.37891" stroke="black" stroke-width="2" stroke-linecap="round" stroke-linejoin="round"/>
<path d="M51.2106 7.1416C51.365 7.63798 51.0448 7.95813 50.7698 8.2816C49.8858 9.32898 48.9852 10.3621 48.105 11.4123C47.2814 12.3956 46.4786 13.3964 45.6588 14.3825C45.6009 14.4508 45.5578 14.5303 45.5321 14.616C45.5064 14.7018 45.4988 14.7919 45.5096 14.8808" stroke="black" stroke-width="2" stroke-linecap="round" stroke-linejoin="round"/>
<path d="M28.5393 64.1152C28.575 64.5403 28.7511 64.9414 29.04 65.2552C29.4114 65.659 29.732 66.0869 29.9534 66.5928C30.2436 67.2545 30.6906 67.7689 31.3998 68.0045C32.24 68.2833 33.0566 68.213 33.7947 67.7271C34.0878 67.5343 34.3291 67.2459 34.5291 66.9391C34.6977 66.6802 34.7898 66.4085 34.7556 66.0983" stroke="black" stroke-width="2" stroke-linecap="round" stroke-linejoin="round"/>
<path d="M38.6454 9.69669C38.4165 9.68766 38.1847 9.72377 37.959 9.6582" stroke="black" stroke-width="2" stroke-linecap="round" stroke-linejoin="round"/>
</svg>
